# xmcd CD database file
#
# Track frame offsets:
#	182
#	15385
#	31785
#
# Disc length: 725 seconds
#
# Revision: 1
# Processed by: cddbd v1.4PL0 Copyright (c) Steve Scherf et al.
# Submitted via: CDex 1.40Beta9
#
DISCID=1202d303
DTITLE=Paganini - Follow The Sun
DYEAR=2000
DGENRE=
TTITLE0=Follow The Sun
TTITLE1=My Life
TTITLE2=My Life (Instrumental)
EXTD=YEAR: 2000
EXTT0=
EXTT1=
EXTT2=
PLAYORDER=
